<svg id="Calque_1" data-name="Calque 1" xmlns="http://www.w3.org/2000/svg" viewBox="0 0 194.25 194.25"><defs><style>.cls-1,.cls-3{fill:#fff;}.cls-2,.cls-4,.cls-5{fill:none;}.cls-2,.cls-3,.cls-4,.cls-5,.cls-6{stroke:#000;stroke-miterlimit:10;}.cls-2{stroke-width:10px;}.cls-5{stroke-width:3px;}.cls-6{font-size:18px;stroke-width:0.25px;font-family:GloucesterMT-ExtraCondensed, Gloucester MT Extra Condensed;letter-spacing:0.08em;}.cls-7{letter-spacing:0.08em;}.cls-8{letter-spacing:0.07em;}</style></defs><title>logo-TDM</title><circle class="cls-1" cx="96.7" cy="97.13" r="92.13"/><circle class="cls-2" cx="97.13" cy="97.13" r="92.13"/><g id="man_with_paper" data-name="man with paper"><g id="man"><circle cx="96.7" cy="45.32" r="28.35"/><rect x="58.45" y="75.23" width="76.5" height="59.25" rx="19.25" ry="19.25"/><ellipse cx="36.67" cy="124.35" rx="7.87" ry="11.95"/><ellipse cx="157.92" cy="124.35" rx="7.87" ry="11.95"/></g><g id="News_paper" data-name="News paper"><rect class="cls-3" x="383.37" y="346.91" width="106.39" height="62.45" transform="translate(-424.79 -137.24) rotate(-14.4)"/><rect class="cls-3" x="48.61" y="92.05" width="106.39" height="71.5"/><line class="cls-4" x1="53.78" y1="110.45" x2="150.78" y2="110.45"/><line class="cls-5" x1="86.15" y1="113.95" x2="150.78" y2="114.45"/><line class="cls-4" x1="124.68" y1="142.33" x2="151.02" y2="142.33"/><line class="cls-4" x1="86.15" y1="139.58" x2="117.65" y2="139.58"/><line class="cls-4" x1="86.15" y1="142.33" x2="117.65" y2="142.33"/><line class="cls-4" x1="119.52" y1="145.08" x2="151.02" y2="145.08"/><line class="cls-4" x1="119.52" y1="147.83" x2="151.02" y2="147.83"/><line class="cls-4" x1="119.52" y1="150.08" x2="151.02" y2="150.08"/><line class="cls-4" x1="119.52" y1="152.83" x2="151.02" y2="152.83"/><line class="cls-4" x1="86.15" y1="145.08" x2="117.65" y2="145.08"/><line class="cls-4" x1="86.15" y1="147.83" x2="117.65" y2="147.83"/><line class="cls-4" x1="86.15" y1="150.08" x2="117.65" y2="150.08"/><line class="cls-4" x1="86.15" y1="152.83" x2="117.65" y2="152.83"/><line class="cls-4" x1="119.65" y1="155.58" x2="151.15" y2="155.58"/><line class="cls-4" x1="119.65" y1="158.33" x2="151.15" y2="158.33"/><line class="cls-4" x1="119.65" y1="160.58" x2="151.15" y2="160.58"/><line class="cls-4" x1="86.15" y1="155.58" x2="117.65" y2="155.58"/><line class="cls-4" x1="86.15" y1="158.27" x2="117.65" y2="158.27"/><line class="cls-4" x1="86.15" y1="160.58" x2="117.65" y2="160.58"/><line class="cls-4" x1="52.81" y1="155.58" x2="84.31" y2="155.58"/><line class="cls-4" x1="52.81" y1="158.27" x2="84.31" y2="158.27"/><line class="cls-4" x1="52.81" y1="160.58" x2="84.31" y2="160.58"/><rect x="52.81" y="117.74" width="31.5" height="35.59"/><line class="cls-4" x1="119.45" y1="118.26" x2="150.95" y2="118.26"/><line class="cls-4" x1="119.45" y1="121.01" x2="150.95" y2="121.01"/><line class="cls-4" x1="119.45" y1="123.26" x2="150.95" y2="123.26"/><line class="cls-4" x1="119.45" y1="126.01" x2="150.95" y2="126.01"/><line class="cls-4" x1="86.08" y1="118.26" x2="117.58" y2="118.26"/><line class="cls-4" x1="86.08" y1="121.01" x2="117.58" y2="121.01"/><line class="cls-4" x1="86.08" y1="123.26" x2="117.58" y2="123.26"/><line class="cls-4" x1="86.08" y1="126.01" x2="117.58" y2="126.01"/><line class="cls-4" x1="119.58" y1="128.76" x2="151.08" y2="128.76"/><line class="cls-4" x1="119.58" y1="131.51" x2="151.08" y2="131.51"/><line class="cls-4" x1="119.58" y1="133.76" x2="151.08" y2="133.76"/><line class="cls-4" x1="119.58" y1="136.51" x2="151.08" y2="136.51"/><line class="cls-4" x1="86.08" y1="128.76" x2="117.58" y2="128.76"/><line class="cls-4" x1="86.08" y1="131.45" x2="117.58" y2="131.45"/><line class="cls-4" x1="86.08" y1="133.76" x2="117.58" y2="133.76"/><line class="cls-4" x1="86.08" y1="136.51" x2="117.58" y2="136.51"/><text class="cls-6" transform="translate(83.11 108.42)">N<tspan class="cls-7" x="8.96" y="0">E</tspan><tspan class="cls-8" x="17.16" y="0">WS</tspan></text></g></g></svg>